<?xml version="1.0" encoding="utf-8"?>
<!-- Generator: Adobe Illustrator 26.1.0, SVG Export Plug-In . SVG Version: 6.00 Build 0)  -->
<svg version="1.1" id="Camada_1" xmlns="http://www.w3.org/2000/svg" xmlns:xlink="http://www.w3.org/1999/xlink" x="0px" y="0px"
	 viewBox="0 0 232 68" style="enable-background:new 0 0 232 68;" xml:space="preserve">
<style type="text/css">
	.st0{fill:#FFFFFF;}
</style>
<g>
	<path class="st0" d="M71.6,16.9C70,10.6,65.1,5.7,58.8,4.1C47,2.2,35,2.2,23.2,4.1C16.9,5.7,12,10.6,10.4,16.9
		c-1.9,11.8-1.9,23.8,0,35.6c1.6,6.3,6.5,11.2,12.8,12.8c11.8,1.9,23.8,1.9,35.6,0c6.3-1.6,11.2-6.5,12.8-12.8
		C73.5,40.7,73.5,28.7,71.6,16.9z M39.2,39.6c-2.9,0.1-5.8,0-8.8,0c-2.8,0-5.5,0-8.3,0c-2.3,0-2.9-1.1-1.8-3.1c3-5.6,6-11.2,9-16.7
		c1.2-2.2,2.4-1.7,3.4,0.2c2.9,5.5,5.7,10.9,8.7,16.4C42.7,39,41.3,39.6,39.2,39.6z M59,39.4c-1.7,3.1-3.4,6.3-5.1,9.4
		c-1.1,2-2.3,2.2-3.4,0.1c-3.1-5.7-6.1-11.4-9.1-17.1c-1.3-2.5-0.1-3.2,2.2-3.3c2.9,0,5.8,0,8.7,0C64.9,28.5,64.9,28.5,59,39.4z"/>
	<g>
		<path class="st0" d="M103.7,29.2c1.8,1.1,3.2,2.5,4.3,4.4c1.1,1.8,1.6,3.9,1.6,6.2v9.7c0,0.6-0.2,1.2-0.6,1.6
			c-0.4,0.4-1,0.6-1.6,0.6c-0.6,0-1.2-0.2-1.6-0.6c-0.4-0.4-0.6-0.9-0.6-1.6v-1.6c-1,1.2-2.2,2.2-3.7,2.9c-1.5,0.7-3,1-4.7,1
			c-2.1,0-4-0.5-5.7-1.6s-3-2.5-4-4.3c-1-1.8-1.5-3.9-1.5-6.2s0.5-4.3,1.6-6.2c1-1.8,2.5-3.3,4.3-4.4c1.8-1.1,3.9-1.6,6.1-1.6
			C99.8,27.6,101.9,28.1,103.7,29.2z M101.6,46.8c1.2-0.7,2.1-1.7,2.8-2.9s1-2.6,1-4.2c0-1.5-0.3-2.9-1-4.2
			c-0.7-1.2-1.6-2.2-2.8-2.9c-1.2-0.7-2.5-1.1-3.9-1.1c-1.5,0-2.8,0.4-3.9,1.1c-1.2,0.7-2.1,1.7-2.8,2.9c-0.7,1.2-1,2.6-1,4.2
			c0,1.5,0.3,2.9,1,4.2c0.7,1.2,1.6,2.2,2.8,2.9s2.5,1.1,3.9,1.1C99.1,47.8,100.4,47.5,101.6,46.8z"/>
		<path class="st0" d="M138.3,18.2c0.4,0.4,0.6,0.9,0.6,1.6v19.8c0,2.3-0.5,4.3-1.6,6.2c-1.1,1.8-2.5,3.3-4.3,4.3s-3.8,1.6-6.1,1.6
			s-4.3-0.5-6.1-1.6c-1.8-1.1-3.3-2.5-4.3-4.3c-1-1.8-1.6-3.9-1.6-6.2s0.5-4.3,1.5-6.2c1-1.8,2.3-3.3,4-4.3s3.6-1.6,5.7-1.6
			c1.7,0,3.2,0.3,4.7,1c1.4,0.7,2.7,1.7,3.7,2.9V19.8c0-0.7,0.2-1.2,0.6-1.6c0.4-0.4,0.9-0.6,1.6-0.6
			C137.4,17.6,137.9,17.8,138.3,18.2z M130.9,46.8c1.2-0.7,2.1-1.7,2.8-2.9c0.7-1.2,1-2.6,1-4.2s-0.3-2.9-1-4.2s-1.6-2.2-2.8-2.9
			c-1.2-0.7-2.5-1.1-3.9-1.1s-2.8,0.4-3.9,1.1c-1.2,0.7-2.1,1.7-2.8,2.9c-0.7,1.2-1,2.6-1,4.2s0.3,2.9,1,4.2
			c0.7,1.2,1.6,2.2,2.8,2.9s2.5,1.1,3.9,1.1S129.7,47.5,130.9,46.8z"/>
		<path class="st0" d="M177.9,30c1.6,1.7,2.3,4,2.3,6.9v12.4c0,0.6-0.2,1.2-0.6,1.6c-0.4,0.4-0.9,0.6-1.6,0.6
			c-0.6,0-1.2-0.2-1.6-0.6c-0.4-0.4-0.6-0.9-0.6-1.6V37c0-1.8-0.4-3.1-1.3-4c-0.9-0.9-2.1-1.4-3.5-1.4c-1.5,0-2.7,0.5-3.7,1.6
			c-1,1-1.5,2.4-1.5,4v12.3c0,0.6-0.2,1.2-0.6,1.6c-0.4,0.4-0.9,0.6-1.6,0.6c-0.6,0-1.2-0.2-1.6-0.6c-0.4-0.4-0.6-0.9-0.6-1.6V37
			c0-1.8-0.4-3.1-1.3-4c-0.9-0.9-2.1-1.4-3.5-1.4c-1.5,0-2.8,0.5-3.8,1.6c-1,1-1.5,2.4-1.5,4v12.3c0,0.6-0.2,1.2-0.6,1.6
			c-0.4,0.4-0.9,0.6-1.6,0.6c-0.6,0-1.2-0.2-1.6-0.6c-0.4-0.4-0.6-0.9-0.6-1.6V30c0-0.7,0.2-1.2,0.6-1.6c0.4-0.4,0.9-0.6,1.6-0.6
			c0.6,0,1.2,0.2,1.6,0.6c0.4,0.4,0.6,0.9,0.7,1.5c0.8-0.8,1.7-1.3,2.7-1.8c1-0.4,2.2-0.6,3.4-0.6c1.5,0,2.8,0.3,4,0.9
			c1.2,0.6,2.1,1.4,2.9,2.5c0.9-1.1,2-1.9,3.3-2.5s2.8-0.9,4.3-0.9C174.3,27.6,176.3,28.4,177.9,30z"/>
		<path class="st0" d="M188.2,23.1c-0.6-0.6-0.8-1.2-0.8-2s0.3-1.5,0.8-2s1.2-0.8,2-0.8s1.5,0.3,2,0.8s0.8,1.2,0.8,2s-0.3,1.5-0.8,2
			s-1.2,0.8-2,0.8S188.8,23.6,188.2,23.1z M188.6,50.9c-0.4-0.4-0.6-0.9-0.6-1.6V30c0-0.7,0.2-1.2,0.6-1.6c0.4-0.4,1-0.6,1.6-0.6
			c0.7,0,1.2,0.2,1.6,0.6c0.4,0.4,0.6,0.9,0.6,1.6v19.4c0,0.6-0.2,1.2-0.6,1.6c-0.4,0.4-0.9,0.6-1.6,0.6
			C189.6,51.6,189,51.4,188.6,50.9z"/>
		<path class="st0" d="M217.9,28.9c1.6,0.9,2.8,2.1,3.7,3.8c0.9,1.7,1.3,3.7,1.3,6v10.7c0,0.6-0.2,1.2-0.6,1.6
			c-0.4,0.4-1,0.6-1.6,0.6s-1.2-0.2-1.6-0.6c-0.4-0.4-0.6-0.9-0.6-1.6V38.7c0-2.3-0.6-4.1-1.9-5.3c-1.3-1.2-2.9-1.8-5-1.8
			c-1.2,0-2.3,0.2-3.3,0.7c-1,0.5-1.8,1.2-2.3,2s-0.8,1.8-0.8,2.8v12.3c0,0.6-0.2,1.2-0.6,1.6c-0.4,0.4-0.9,0.6-1.6,0.6
			c-0.6,0-1.2-0.2-1.6-0.6c-0.4-0.4-0.6-0.9-0.6-1.6V30c0-0.7,0.2-1.2,0.6-1.6c0.4-0.4,0.9-0.6,1.6-0.6c0.7,0,1.2,0.2,1.6,0.6
			c0.4,0.4,0.6,0.9,0.6,1.6v0.5c0.9-0.9,2-1.6,3.3-2.2c1.3-0.5,2.6-0.8,4.1-0.8C214.5,27.6,216.3,28,217.9,28.9z"/>
	</g>
</g>
</svg>
